<mxfile modified="2021-07-18T16:05:14.940Z" host="app.diagrams.net" agent="5.0 (Macintosh; Intel Mac OS X 10_15_7) AppleWebKit/537.36 (KHTML, like Gecko) Chrome/91.0.4472.114 Safari/537.36" etag="f0zS6EhzeTPVZXWFnJZu" version="14.8.0" type="github">
  <diagram name="Page-1" id="97a40813-6b03-0c74-37c1-0168de264b11">
    <mxGraphModel dx="815" dy="1585" grid="1" gridSize="10" guides="1" tooltips="1" connect="1" arrows="1" fold="1" page="1" pageScale="1" pageWidth="827" pageHeight="1169" background="#ffffff" math="0" shadow="0">
      <root>
        <mxCell id="0" />
        <mxCell id="1" parent="0" />
        <mxCell id="CR-hwfbp46mIk3XXRY8j-1" value="" style="whiteSpace=wrap;html=1;fillColor=none;sketch=1;" parent="1" vertex="1">
          <mxGeometry x="570" y="-1127.5" width="140" height="205" as="geometry" />
        </mxCell>
        <mxCell id="CR-hwfbp46mIk3XXRY8j-2" value="View V3" style="whiteSpace=wrap;html=1;fontColor=#333333;fillStyle=solid;fontStyle=1;strokeColor=#CC0066;fillColor=#FFCCE6;sketch=1;" parent="1" vertex="1">
          <mxGeometry x="580" y="-992.5" width="120" height="60" as="geometry" />
        </mxCell>
        <mxCell id="CR-hwfbp46mIk3XXRY8j-3" value="" style="whiteSpace=wrap;html=1;fillColor=none;sketch=1;" parent="1" vertex="1">
          <mxGeometry x="630" y="-800.5" width="140" height="205" as="geometry" />
        </mxCell>
        <mxCell id="CR-hwfbp46mIk3XXRY8j-4" value="Model M1" style="whiteSpace=wrap;html=1;fillColor=#f8cecc;strokeColor=#b85450;fillStyle=zigzag;fontColor=#990000;fontStyle=1;sketch=1;" parent="1" vertex="1">
          <mxGeometry x="640" y="-783" width="120" height="60" as="geometry" />
        </mxCell>
        <mxCell id="CR-hwfbp46mIk3XXRY8j-5" style="edgeStyle=none;orthogonalLoop=1;jettySize=auto;html=1;fontSize=12;fontColor=#000000;exitX=0.734;exitY=0.884;exitDx=0;exitDy=0;exitPerimeter=0;startArrow=none;startFill=0;sketch=1;entryX=0;entryY=0.5;entryDx=0;entryDy=0;strokeColor=#E0E0E0;" parent="1" source="CR-hwfbp46mIk3XXRY8j-7" target="CR-hwfbp46mIk3XXRY8j-4" edge="1">
          <mxGeometry relative="1" as="geometry">
            <mxPoint x="690" y="-816" as="targetPoint" />
          </mxGeometry>
        </mxCell>
        <mxCell id="CR-hwfbp46mIk3XXRY8j-6" style="edgeStyle=none;orthogonalLoop=1;jettySize=auto;html=1;entryX=0;entryY=0.5;entryDx=0;entryDy=0;fontSize=12;fontColor=#000000;startArrow=none;startFill=0;sketch=1;exitX=0.473;exitY=0.094;exitDx=0;exitDy=0;exitPerimeter=0;strokeColor=#E0E0E0;" parent="1" source="CR-hwfbp46mIk3XXRY8j-7" target="CR-hwfbp46mIk3XXRY8j-41" edge="1">
          <mxGeometry relative="1" as="geometry">
            <mxPoint x="370" y="-960" as="sourcePoint" />
            <mxPoint x="590" y="-1089" as="targetPoint" />
          </mxGeometry>
        </mxCell>
        <mxCell id="CR-hwfbp46mIk3XXRY8j-7" value="Reflector" style="ellipse;shape=cloud;whiteSpace=wrap;html=1;fontSize=21;strokeColor=#6c8ebf;fillColor=#CCFFFF;fontColor=#0066CC;sketch=1;" parent="1" vertex="1">
          <mxGeometry x="310" y="-920" width="326" height="130" as="geometry" />
        </mxCell>
        <mxCell id="CR-hwfbp46mIk3XXRY8j-8" style="edgeStyle=none;orthogonalLoop=1;jettySize=auto;html=1;fontSize=12;fontColor=#000000;exitX=0;exitY=0.5;exitDx=0;exitDy=0;startArrow=none;startFill=0;sketch=1;entryX=0.626;entryY=0.953;entryDx=0;entryDy=0;entryPerimeter=0;strokeColor=#E0E0E0;" parent="1" source="CR-hwfbp46mIk3XXRY8j-39" target="CR-hwfbp46mIk3XXRY8j-7" edge="1">
          <mxGeometry relative="1" as="geometry">
            <mxPoint x="680" y="-620" as="sourcePoint" />
          </mxGeometry>
        </mxCell>
        <mxCell id="CR-hwfbp46mIk3XXRY8j-9" value="Client C2" style="text;html=1;strokeColor=none;fillColor=none;align=center;verticalAlign=middle;whiteSpace=wrap;fontStyle=1;sketch=1;" parent="1" vertex="1">
          <mxGeometry x="665" y="-595.5" width="70" height="20" as="geometry" />
        </mxCell>
        <mxCell id="CR-hwfbp46mIk3XXRY8j-10" value="" style="outlineConnect=0;dashed=0;verticalLabelPosition=bottom;verticalAlign=top;align=center;html=1;fontSize=12;fontStyle=0;aspect=fixed;pointerEvents=1;shape=mxgraph.aws4.user;fillColor=#333333;strokeWidth=1;sketch=1;" parent="1" vertex="1">
          <mxGeometry x="681" y="-575.5" width="38" height="38" as="geometry" />
        </mxCell>
        <mxCell id="CR-hwfbp46mIk3XXRY8j-11" value="publish(&quot;rollDice&quot;)" style="text;html=1;strokeColor=none;fillColor=none;align=center;verticalAlign=middle;whiteSpace=wrap;fontSize=12;rotation=52;sketch=1;fontColor=#E0E0E0;" parent="1" vertex="1">
          <mxGeometry x="515" y="-723" width="106" height="20" as="geometry" />
        </mxCell>
        <mxCell id="CR-hwfbp46mIk3XXRY8j-12" value="subscribe&lt;br&gt;(&quot;rollDice&quot;)" style="text;html=1;strokeColor=none;fillColor=none;align=center;verticalAlign=middle;whiteSpace=wrap;fontSize=12;rotation=29;sketch=1;fontColor=#E0E0E0;" parent="1" vertex="1">
          <mxGeometry x="571.69" y="-806.83" width="64.31" height="30.83" as="geometry" />
        </mxCell>
        <mxCell id="CR-hwfbp46mIk3XXRY8j-13" style="edgeStyle=none;orthogonalLoop=1;jettySize=auto;html=1;entryX=0.516;entryY=0.118;entryDx=0;entryDy=0;entryPerimeter=0;fontSize=12;fontColor=#000000;exitX=0;exitY=0.5;exitDx=0;exitDy=0;startArrow=none;startFill=0;sketch=1;strokeColor=#E0E0E0;" parent="1" source="CR-hwfbp46mIk3XXRY8j-2" target="CR-hwfbp46mIk3XXRY8j-7" edge="1">
          <mxGeometry relative="1" as="geometry">
            <mxPoint x="533.75" y="-893" as="targetPoint" />
            <mxPoint x="590" y="-1009" as="sourcePoint" />
          </mxGeometry>
        </mxCell>
        <mxCell id="CR-hwfbp46mIk3XXRY8j-14" value="Client C3" style="text;html=1;strokeColor=none;fillColor=none;align=center;verticalAlign=middle;whiteSpace=wrap;fontStyle=1;sketch=1;" parent="1" vertex="1">
          <mxGeometry x="605" y="-922.5" width="70" height="20" as="geometry" />
        </mxCell>
        <mxCell id="CR-hwfbp46mIk3XXRY8j-15" value="" style="outlineConnect=0;dashed=0;verticalLabelPosition=bottom;verticalAlign=top;align=center;html=1;fontSize=12;fontStyle=0;aspect=fixed;pointerEvents=1;shape=mxgraph.aws4.user;fillColor=#333333;strokeWidth=1;sketch=1;" parent="1" vertex="1">
          <mxGeometry x="621" y="-902.5" width="38" height="38" as="geometry" />
        </mxCell>
        <mxCell id="CR-hwfbp46mIk3XXRY8j-16" value="publish&lt;br&gt;(&quot;rollDice&quot;)" style="text;html=1;strokeColor=none;fillColor=none;align=center;verticalAlign=middle;whiteSpace=wrap;fontSize=12;rotation=331;sketch=1;fontColor=#E0E0E0;" parent="1" vertex="1">
          <mxGeometry x="507.92" y="-936.7800000000001" width="63.77" height="33.56" as="geometry" />
        </mxCell>
        <mxCell id="CR-hwfbp46mIk3XXRY8j-17" value="subscribe(&quot;rollDice&quot;)" style="text;html=1;strokeColor=none;fillColor=none;align=center;verticalAlign=middle;whiteSpace=wrap;fontSize=12;rotation=304;sketch=1;fontColor=#E0E0E0;" parent="1" vertex="1">
          <mxGeometry x="450" y="-994" width="106" height="20" as="geometry" />
        </mxCell>
        <mxCell id="CR-hwfbp46mIk3XXRY8j-18" style="edgeStyle=none;orthogonalLoop=1;jettySize=auto;html=1;exitX=0.5;exitY=1;exitDx=0;exitDy=0;fontSize=12;fontColor=#000000;sketch=1;" parent="1" edge="1">
          <mxGeometry relative="1" as="geometry">
            <mxPoint x="608.7462562898772" y="-746.1164542430624" as="sourcePoint" />
            <mxPoint x="608.7462562898772" y="-746.1164542430624" as="targetPoint" />
          </mxGeometry>
        </mxCell>
        <mxCell id="CR-hwfbp46mIk3XXRY8j-19" value="" style="whiteSpace=wrap;html=1;fillColor=none;sketch=1;" parent="1" vertex="1">
          <mxGeometry x="80" y="-966" width="140" height="205" as="geometry" />
        </mxCell>
        <mxCell id="CR-hwfbp46mIk3XXRY8j-20" value="Model M1" style="whiteSpace=wrap;html=1;fillColor=#f8cecc;strokeColor=#b85450;fillStyle=zigzag;fontColor=#990000;fontStyle=1;sketch=1;" parent="1" vertex="1">
          <mxGeometry x="90" y="-950" width="120" height="60" as="geometry" />
        </mxCell>
        <mxCell id="CR-hwfbp46mIk3XXRY8j-21" value="Client C1" style="text;html=1;strokeColor=none;fillColor=none;align=center;verticalAlign=middle;whiteSpace=wrap;fontStyle=1;sketch=1;" parent="1" vertex="1">
          <mxGeometry x="115" y="-760" width="70" height="20" as="geometry" />
        </mxCell>
        <mxCell id="CR-hwfbp46mIk3XXRY8j-22" value="Session XYZ" style="text;html=1;align=center;verticalAlign=middle;whiteSpace=wrap;fontSize=14;fillColor=#ffffff;fontStyle=1;sketch=0;" parent="1" vertex="1">
          <mxGeometry x="120" y="-976" width="90" height="20" as="geometry" />
        </mxCell>
        <mxCell id="CR-hwfbp46mIk3XXRY8j-23" value="" style="outlineConnect=0;dashed=0;verticalLabelPosition=bottom;verticalAlign=top;align=center;html=1;fontSize=12;fontStyle=0;aspect=fixed;pointerEvents=1;shape=mxgraph.aws4.user;fillColor=#333333;strokeWidth=1;sketch=1;" parent="1" vertex="1">
          <mxGeometry x="131" y="-740" width="38" height="38" as="geometry" />
        </mxCell>
        <mxCell id="CR-hwfbp46mIk3XXRY8j-24" style="orthogonalLoop=1;jettySize=auto;html=1;entryX=0.101;entryY=0.664;entryDx=0;entryDy=0;entryPerimeter=0;fontColor=#990000;startArrow=none;startFill=0;sketch=1;strokeColor=#E0E0E0;" parent="1" edge="1">
          <mxGeometry relative="1" as="geometry">
            <mxPoint x="210" y="-805.8997924696117" as="sourcePoint" />
            <mxPoint x="342.92599999999993" y="-833.68" as="targetPoint" />
          </mxGeometry>
        </mxCell>
        <mxCell id="CR-hwfbp46mIk3XXRY8j-25" style="edgeStyle=none;orthogonalLoop=1;jettySize=auto;html=1;entryX=1;entryY=0.5;entryDx=0;entryDy=0;fontSize=12;fontColor=#000000;exitX=0.07;exitY=0.4;exitDx=0;exitDy=0;exitPerimeter=0;startArrow=none;startFill=0;sketch=1;strokeColor=#E0E0E0;" parent="1" target="CR-hwfbp46mIk3XXRY8j-20" edge="1">
          <mxGeometry relative="1" as="geometry">
            <mxPoint x="332.81999999999994" y="-868" as="sourcePoint" />
            <mxPoint x="210" y="-880" as="targetPoint" />
          </mxGeometry>
        </mxCell>
        <mxCell id="CR-hwfbp46mIk3XXRY8j-26" value="publish(&quot;rollDice&quot;)" style="text;html=1;strokeColor=none;fillColor=none;align=center;verticalAlign=middle;whiteSpace=wrap;fontSize=12;rotation=348;sketch=1;fontColor=#E0E0E0;" parent="1" vertex="1">
          <mxGeometry x="230.03" y="-821.42" width="110" height="20.75" as="geometry" />
        </mxCell>
        <mxCell id="CR-hwfbp46mIk3XXRY8j-27" value="subscribe(&quot;rollDice&quot;)" style="text;html=1;strokeColor=none;fillColor=none;align=center;verticalAlign=middle;whiteSpace=wrap;fontSize=12;rotation=23;sketch=1;fontColor=#E0E0E0;" parent="1" vertex="1">
          <mxGeometry x="225" y="-912" width="106" height="20" as="geometry" />
        </mxCell>
        <mxCell id="CR-hwfbp46mIk3XXRY8j-28" value="View V1" style="whiteSpace=wrap;html=1;fontColor=#333333;fillStyle=solid;fontStyle=1;fillColor=#B3FF66;strokeColor=#66FF66;sketch=1;" parent="1" vertex="1">
          <mxGeometry x="90" y="-833" width="120" height="60" as="geometry" />
        </mxCell>
        <mxCell id="CR-hwfbp46mIk3XXRY8j-30" value="init()" style="text;html=1;strokeColor=none;fillColor=none;align=center;verticalAlign=middle;whiteSpace=wrap;rounded=0;sketch=1;fontSize=12;fontColor=#000000;fontStyle=1" parent="1" vertex="1">
          <mxGeometry x="170" y="-910" width="40" height="20" as="geometry" />
        </mxCell>
        <mxCell id="CR-hwfbp46mIk3XXRY8j-31" style="orthogonalLoop=1;jettySize=auto;html=1;fontColor=#990000;startArrow=classic;startFill=1;sketch=1;entryX=0.5;entryY=1;entryDx=0;entryDy=0;exitX=0.5;exitY=0;exitDx=0;exitDy=0;" parent="1" source="CR-hwfbp46mIk3XXRY8j-28" target="CR-hwfbp46mIk3XXRY8j-20" edge="1">
          <mxGeometry relative="1" as="geometry">
            <mxPoint x="220" y="-795.8997924696117" as="sourcePoint" />
            <mxPoint x="353" y="-740" as="targetPoint" />
          </mxGeometry>
        </mxCell>
        <mxCell id="CR-hwfbp46mIk3XXRY8j-32" value="publish&lt;br&gt;(&quot;show&quot;)" style="text;html=1;strokeColor=none;fillColor=none;align=center;verticalAlign=middle;whiteSpace=wrap;fontSize=9;rotation=-90;sketch=1;" parent="1" vertex="1">
          <mxGeometry x="115" y="-870" width="40" height="20" as="geometry" />
        </mxCell>
        <mxCell id="CR-hwfbp46mIk3XXRY8j-33" value="subscribe&lt;br&gt;(&quot;show&quot;)" style="text;html=1;strokeColor=none;fillColor=none;align=center;verticalAlign=middle;whiteSpace=wrap;fontSize=9;rotation=90;sketch=1;" parent="1" vertex="1">
          <mxGeometry x="140" y="-870" width="50" height="22" as="geometry" />
        </mxCell>
        <mxCell id="CR-hwfbp46mIk3XXRY8j-34" value="Session XYZ" style="text;html=1;align=center;verticalAlign=middle;whiteSpace=wrap;fontSize=14;fillColor=#ffffff;fontStyle=1;sketch=0;" parent="1" vertex="1">
          <mxGeometry x="670" y="-810" width="90" height="20" as="geometry" />
        </mxCell>
        <mxCell id="CR-hwfbp46mIk3XXRY8j-35" value="init()" style="text;html=1;strokeColor=none;fillColor=none;align=center;verticalAlign=middle;whiteSpace=wrap;rounded=0;sketch=1;fontSize=12;fontColor=#000000;fontStyle=1" parent="1" vertex="1">
          <mxGeometry x="720" y="-743" width="40" height="20" as="geometry" />
        </mxCell>
        <mxCell id="CR-hwfbp46mIk3XXRY8j-36" style="orthogonalLoop=1;jettySize=auto;html=1;fontColor=#990000;startArrow=classic;startFill=1;sketch=1;entryX=0.5;entryY=1;entryDx=0;entryDy=0;exitX=0.5;exitY=0;exitDx=0;exitDy=0;" parent="1" edge="1">
          <mxGeometry relative="1" as="geometry">
            <mxPoint x="700" y="-666" as="sourcePoint" />
            <mxPoint x="700" y="-723" as="targetPoint" />
          </mxGeometry>
        </mxCell>
        <mxCell id="CR-hwfbp46mIk3XXRY8j-37" value="publish&lt;br&gt;(&quot;show&quot;)" style="text;html=1;strokeColor=none;fillColor=none;align=center;verticalAlign=middle;whiteSpace=wrap;fontSize=9;rotation=-90;sketch=1;" parent="1" vertex="1">
          <mxGeometry x="665" y="-703" width="40" height="20" as="geometry" />
        </mxCell>
        <mxCell id="CR-hwfbp46mIk3XXRY8j-38" value="subscribe&lt;br&gt;(&quot;show&quot;)" style="text;html=1;strokeColor=none;fillColor=none;align=center;verticalAlign=middle;whiteSpace=wrap;fontSize=9;rotation=90;sketch=1;" parent="1" vertex="1">
          <mxGeometry x="690" y="-703" width="50" height="22" as="geometry" />
        </mxCell>
        <mxCell id="CR-hwfbp46mIk3XXRY8j-39" value="View V2" style="whiteSpace=wrap;html=1;fontColor=#333333;fillStyle=solid;fontStyle=1;strokeColor=#6666FF;fillColor=#CCCCFF;sketch=1;" parent="1" vertex="1">
          <mxGeometry x="640" y="-665.5" width="120" height="60" as="geometry" />
        </mxCell>
        <mxCell id="CR-hwfbp46mIk3XXRY8j-41" value="Model M1" style="whiteSpace=wrap;html=1;fillColor=#f8cecc;strokeColor=#b85450;fillStyle=zigzag;fontColor=#990000;fontStyle=1;sketch=1;" parent="1" vertex="1">
          <mxGeometry x="580" y="-1110" width="120" height="60" as="geometry" />
        </mxCell>
        <mxCell id="CR-hwfbp46mIk3XXRY8j-42" value="Session XYZ" style="text;html=1;align=center;verticalAlign=middle;whiteSpace=wrap;fontSize=14;fillColor=#ffffff;fontStyle=1;sketch=0;" parent="1" vertex="1">
          <mxGeometry x="610" y="-1137" width="90" height="20" as="geometry" />
        </mxCell>
        <mxCell id="CR-hwfbp46mIk3XXRY8j-43" value="init()" style="text;html=1;strokeColor=none;fillColor=none;align=center;verticalAlign=middle;whiteSpace=wrap;rounded=0;sketch=1;fontSize=12;fontColor=#000000;fontStyle=1" parent="1" vertex="1">
          <mxGeometry x="660" y="-1070" width="40" height="20" as="geometry" />
        </mxCell>
        <mxCell id="CR-hwfbp46mIk3XXRY8j-44" style="orthogonalLoop=1;jettySize=auto;html=1;fontColor=#990000;startArrow=classic;startFill=1;sketch=1;entryX=0.5;entryY=1;entryDx=0;entryDy=0;exitX=0.5;exitY=0;exitDx=0;exitDy=0;" parent="1" edge="1">
          <mxGeometry relative="1" as="geometry">
            <mxPoint x="640" y="-993" as="sourcePoint" />
            <mxPoint x="640" y="-1050" as="targetPoint" />
          </mxGeometry>
        </mxCell>
        <mxCell id="CR-hwfbp46mIk3XXRY8j-45" value="publish&lt;br&gt;(&quot;show&quot;)" style="text;html=1;strokeColor=none;fillColor=none;align=center;verticalAlign=middle;whiteSpace=wrap;fontSize=9;rotation=-90;sketch=1;" parent="1" vertex="1">
          <mxGeometry x="605" y="-1030" width="40" height="20" as="geometry" />
        </mxCell>
        <mxCell id="CR-hwfbp46mIk3XXRY8j-46" value="subscribe&lt;br&gt;(&quot;show&quot;)" style="text;html=1;strokeColor=none;fillColor=none;align=center;verticalAlign=middle;whiteSpace=wrap;fontSize=9;rotation=90;sketch=1;" parent="1" vertex="1">
          <mxGeometry x="630" y="-1030" width="50" height="22" as="geometry" />
        </mxCell>
        <mxCell id="woqAreDRRJCcJmipMoo3-1" value="" style="shape=image;verticalLabelPosition=bottom;labelBackgroundColor=#ffffff;verticalAlign=top;aspect=fixed;imageAspect=0;image=data:image/png,iVBORw0KGgoAAAANSUhEUgAAAPwAAAD8CAYAAABTq8lnAAAN1UlEQVR4Ae2dwaocRRSG8ywJ2Qm+ik/ga8SFYPY+QOAqCEHXbly5j8FFVsEbULIJiYQEg6gbXWTkTyhp2p6Z6pmpqtPn/y4MPdO3uqumzvnOf6a7uurGDf7oAXrAqwce37t5l5dfHzz54uZn2N3L7u8im4x+fXVrx4s+wAdy+wDAE+gI9EY+APBGxka9c6t3jX0BHuBReCMfAHgjY9coAGVyZwEAD/AovJEPALyRsVHv3OpdY1+AB3gU3sgHAN7I2DUKQJncWQDAAzwKb+QDAG9kbNQ7t3rX2Pck4F89+GTHiz7AB+L4QA3sKnMy8Lvfn+940Qf4wHgfUOAFeAISAdnEBwDexNCo63h1jWADgAd41N3IBwDeyNgRFIY2jM00AB7gUXgjHwB4I2OjrmPVNUL/AzzAo/BGPgDwRsaOoDC0YWyWAfAAj8Ib+QDAGxkbdR2rrhH6H+ABHoU38gGANzJ2BIWhDWOzDIAHeBTeyAcA3sjYqOtYdY3Q/wAP8Ci8kQ8AvJGxIygMbRibZQA8wKPwRj4A8EbGRl3HqmuE/gd4gEfhjXwA4I2MHUFhaMPYLAPgAR6FN/IBgDcyNuo6Vl0j9D/AAzwKb+QDAG9k7AgKQxvGZhkAD/AovJEPALyRsVHXseoaof8BHuBReCMfAHgjY0dQGNowNssAeIBH4Y18AOCNjI26jlXXCP0P8ACPwhv5AMAbGTuCwtCGsVkGwAM8Cm/kAwBvZGzUday6Ruh/gAd4FL7SB/7+9cfdn0++2b159Pnu9cNPd68e3Hm31Wft1/8jQH2oDQBfaexDncj/8irnHz99tXvx/ce7X77+cHd9devoS+VUXsdF9AuAB/iQjjkSlre/Pd29/uHTasj3BQLBr/O8ffM0TB8DPMCHccaRkJe6lZ7/fP+Do0q+D/Kl/TqfzlvqGLkFeIAP4YgjIVDd/7x8tHv23UcXBX0Ov86vekZ+V4AH+KEOONL5S91//fLt2en7HO59n5Xmq75Sd+8twAP8MOfr7exL9enq+pMvbzdV9jn8qk/1LrWn9T6AB/ghjtfasWvOL6XtDXuBX/WOUHqAB3hL4PVbuvZWW4H00lvV3/s3PcADvCXwrS/Q1QYHtaMmG7lUGYAH+K4OdynHPec8ukVWC2SPcj1v2QE8wFsBr0Ewl77Pfm5QUHs02OecIFZ7LMADfBdHq3XI1uU08u1cQFscr3a1/u46P8ADfBdH6+HMNXWMvlC3L1ioXTXtP7cMwAN8F0c711EvcbweaNkHXIT9PR64AXiAtwFeT7FFAHtfG9S+SwS2Q+cAeIBv7mSHHLDn/6Km8yUA9EjrAR7gLYDX5BQFrMjb1pNoADzAWwCvseuRQS9taz3GHuAB3gL4aINtCuDzbetBOAAP8BbAaw66OVwRP6udLa9rADzAN3Wwls675tyacDIi4PM2qZ1rvtfasgAP8E0dbK1DtiqPwr+faBTgAd4CeH7DA7yFo7dSzK2dl6v0AA/wRtkN9+EBHuCNgFdGwkg7npYDeiPoGUsP8ABvBDxPywE8wBsBHzmt7/HgjL4/t+XMHH5rV9cv3V5mvPmkegDSDf09vnfz7nx00KHPiiiXNhrne3/FlX5Y3w+aOy7knHadFpxE4VF4u4AcbRBO6wdmpsIA8ABvB7wAYF7642vdk9ITHNIEB1aeAfg0zjxN4Xi//3c+a8sdhh6FR+HTBUWNse+9oCSrxwJSOpC2lFlI6XsNu1U9I1aNLfbgoh3BhmDz+/N3q7i2vpCn8/deLbaAXrYAD/AAP/EB3SK79H16na/nrbcC99IW4CfGXuog9u2/6JW1b7TgpEbknZvm63idp9dCkTX2AHiAR+EP+IAeuNFTdrXwq5zK91g2qgbweRmAP2DseWfx2U/tpzbXJBq6qq/0XHPkacJJbfVZ+1svIjFty6nvAR7gUXgjHwB4I2OfqgoclyezAXiAR+GNfADgjYyNUudR6lNtCfAAj8Ib+QDAGxn7VFXguDyZAcADPApv5AMAb2RslDqPUp9qS4AHeBTeyAcA3sjYp6oCx+XJDAAe4FF4Ix8AeCNjo9R5lPpUWwI8wKPwRj4A8EbGPlUVOC5PZgDwAL+o8BkeBSVQ/T9QATzA/wd8tskeAB7g/3NunOG9M2j6pYtO59RpjTTs93+Ya/oEhTdW+OwTNtYA4FYG4A2B11TJDlMyu8Fc830B3gx4p0UXagBwKwPwRsC7LavkBnPN9wV4E+AdF06sAcCtDMAbAO+6NLIbzDXfF+ANgG99ge766vCyw+X/akeNU1LmtFtuNf0G8MmB1623AlyErdpT45iUaQM9wCcGXmukXXphxHODhtoTaa01t8AC8ImB1wi6cwFtcbza5QZalO8L8ImBr10AsQXUh86pdkUBwK0dAJ8UeD0Icwi60f+Lurpq9gAA8EmB15LFo6E+VL/alx2uiN8P4JMCHzWdL0GAtL7NVfhjQQbgEwKvySsKWJG3W1hP/RhAW/s/wCcEXmPmI4Ne2qZ2bg2YrbcX4BMCH22wTQF8vmUQTv+0HuATAv/6Ycz773Pg1c6tK+bW2g/wCYF/9eDOJlJ6tXNrwGy9vQCfEHgUvn+qvJVAAPAJgec3PMDvC0AAnxB4rtIDPMAnBHufUbkPD/D7fAOFTxoIGGkH9EvQA3xS4BlLD/AAnxTuJcPytBzAL/kFCp84CERN63lwZlwwAvjEwDPjzTiwltQ1wj6ATwy85o4LOacdC04OG2EI8ImBl6JEG4TDAzNjsw6ATw68oGde+rGQRUjlSxsA3gB4Vp4BeIA3AL0YWVvWlgN6+QEKbwQ+q8cCPcAbAV+Uvtf9edWjzGKaafB+bNABeDPgBZx+07e+kKfzqx4AHwv4vP8B3hD44gS6RXbp+/Q6H7feYkFe7K0twBsDLwfQgpMakXdumq/jdR4WiowLO8Cbwz6N/HqvB270lF0t/Cqn8iwbFRvyqZ1ReKBf/J2tSTR0VV/puebI04ST2uqz9rOIxHYgB3ggX4R86hi83ybQx+yGwgM/8Bv5AMAbGftY9Of/OVV9aleAB3gU3sgHAN7I2NNIz/v8ar5kY4AHeBTeyAcA3sjYSxGffV5KD/AAj8Ib+QDAGxkbNfdS8yV7AzzAo/BGPgDwRsZeivjs81J9gAd4FN7IBwDeyNiouZeaL9kb4AEehTfyAYA3MvZSxGefl+oDPMCj8EY+APBGxkbNvdR8yd4AD/AovJEPALyRsZciPvu8VB/gAR6FN/IBgK80NpM6eilh1swH4A8Az7TNQJ4NfICfAa+FFC66MMObp6TMsz7OBtGWvg/AT5yRpZdQ9C3Be0pbAZ7FFclAJkH/FIi2dIw98FrOuHZppeurW7tzXqqH5ZPJIkYGCGvgtWTSky9vnwXx2gCg+lTvSKNTt2/QsQVeStsb9hIcVC9K7wvdyIBrCfw/Lx91S+ML5POt0nu1Y6Txqdsv6FgC/+y7j7qm8XPYy2e1A+j8oBtpczvgdeutABdhq/aMdADq9go4VsC/ffN09/P9D0IBr/ZosA/geYE3yt5WwGsEXQRVn7dB7RrlANTrFWisgO91v30O9LHPahfgeYE3yt42wOtBmGPgjfy/2jfKCajXJ9jYAP/i+49DA6/2AZ4PeKNsbQN81HS+ZBWk9cDeIwhYAK/JKwpYkbdqZw+jU4dvcLEAXmPXI4Ne2sYYe18QewVhC+CjDbYpgM+3DMIB+NbgWwD/+mHM++9z4NXO1gbn/N5BxQL4Vw/ubCKlVzsB0hvI1va3AB6FB6LWIG3l/BbA8xse4LcCZOt2WgDPVXqAbw3SVs5vATz34QF+K0C2bqcF8OpERtoBfWuYtnB+G+AZSw/wWwCydRttgOdpOYBvDdMWzm8DvIwRNa3nwRmCUa9gYQU8M94AVi+wotZjBbzmjgs5px0LTjLCsNNyV1bAK+pGG4TDAzNkHT2zATvg1bnMSw9kPSGLVJcl8Kw8A/CRIOzZFkvg1cGsLQf0PUGLUpct8DKAxtj3XlCS1WMJNCPhtwZeHS+l73V/XvWwaizAA3ynWxL7Olq/6VtfyNP5WS0W2Pf5YK/99go/7WjdIrv0fXqdj1tvgD71s5HvAX6WXWjBSY3IOzfN1/E6DwtFAvtIwOd1A/wM+GkH6YEbPWVXC7/KqTzLRgH51I8ivQf4A8BPDaVJNHRVX+m55sjThJPa6rP2s4gEkE/9Jep7gK8EPqoBaReBZo0PADzA8+CKkQ8AvJGx1ygBZXNmDgAP8Ci8kQ8AvJGxUe2cqr3GrgAP8Ci8kQ8AvJGx1ygBZXNmAwAP8Ci8kQ8AvJGxUe2cqr3GrgAP8Ci8kQ8AvJGx1ygBZXNmAwAP8Ci8kQ8AvJGxUe2cqr3GrgAP8Ci8kQ8AvJGx1ygBZXNmAwAP8Ci8kQ8AvJGxUe2cqr3GrgAP8Ci8kQ8AvJGx1ygBZXNmAwAP8Ci8kQ8AvJGxUe2cqr3GrgAP8Ci8kQ8AvJGx1ygBZXNmAwAP8Ci8kQ8AvJGxUe2cqr3GrgAP8Ci8kQ8AvJGx1ygBZXNmAwAP8Ci8kQ8AvJGxUe2cqr3Grl2AVyW86AN8IIYPXF/d2tW8bujv8b2bd2sKU6auU+kn+imqDwB8ZWSMakDaRXBZ4wMAD/BVqeAap6Js3CAE8AAP8EY+APBGxkZ54ypvL9sAPMCj8EY+APBGxu6lItQTN5MAeIBH4Y18AOCNjI3yxlXeXrYBeIBH4Y184F+fcwcD0El1UgAAAABJRU5ErkJggg==;sketch=1;" vertex="1" parent="1">
          <mxGeometry x="183" y="-800" width="27" height="27" as="geometry" />
        </mxCell>
        <mxCell id="woqAreDRRJCcJmipMoo3-2" value="" style="shape=image;verticalLabelPosition=bottom;labelBackgroundColor=#ffffff;verticalAlign=top;aspect=fixed;imageAspect=0;image=data:image/png,iVBORw0KGgoAAAANSUhEUgAAAPwAAAD8CAYAAABTq8lnAAAN1UlEQVR4Ae2dwaocRRSG8ywJ2Qm+ik/ga8SFYPY+QOAqCEHXbly5j8FFVsEbULIJiYQEg6gbXWTkTyhp2p6Z6pmpqtPn/y4MPdO3uqumzvnOf6a7uurGDf7oAXrAqwce37t5l5dfHzz54uZn2N3L7u8im4x+fXVrx4s+wAdy+wDAE+gI9EY+APBGxka9c6t3jX0BHuBReCMfAHgjY9coAGVyZwEAD/AovJEPALyRsVHv3OpdY1+AB3gU3sgHAN7I2DUKQJncWQDAAzwKb+QDAG9kbNQ7t3rX2Pck4F89+GTHiz7AB+L4QA3sKnMy8Lvfn+940Qf4wHgfUOAFeAISAdnEBwDexNCo63h1jWADgAd41N3IBwDeyNgRFIY2jM00AB7gUXgjHwB4I2OjrmPVNUL/AzzAo/BGPgDwRsaOoDC0YWyWAfAAj8Ib+QDAGxkbdR2rrhH6H+ABHoU38gGANzJ2BIWhDWOzDIAHeBTeyAcA3sjYqOtYdY3Q/wAP8Ci8kQ8AvJGxIygMbRibZQA8wKPwRj4A8EbGRl3HqmuE/gd4gEfhjXwA4I2MHUFhaMPYLAPgAR6FN/IBgDcyNuo6Vl0j9D/AAzwKb+QDAG9k7AgKQxvGZhkAD/AovJEPALyRsVHXseoaof8BHuBReCMfAHgjY0dQGNowNssAeIBH4Y18AOCNjI26jlXXCP0P8ACPwhv5AMAbGTuCwtCGsVkGwAM8Cm/kAwBvZGzUday6Ruh/gAd4FL7SB/7+9cfdn0++2b159Pnu9cNPd68e3Hm31Wft1/8jQH2oDQBfaexDncj/8irnHz99tXvx/ce7X77+cHd9devoS+VUXsdF9AuAB/iQjjkSlre/Pd29/uHTasj3BQLBr/O8ffM0TB8DPMCHccaRkJe6lZ7/fP+Do0q+D/Kl/TqfzlvqGLkFeIAP4YgjIVDd/7x8tHv23UcXBX0Ov86vekZ+V4AH+KEOONL5S91//fLt2en7HO59n5Xmq75Sd+8twAP8MOfr7exL9enq+pMvbzdV9jn8qk/1LrWn9T6AB/ghjtfasWvOL6XtDXuBX/WOUHqAB3hL4PVbuvZWW4H00lvV3/s3PcADvCXwrS/Q1QYHtaMmG7lUGYAH+K4OdynHPec8ukVWC2SPcj1v2QE8wFsBr0Ewl77Pfm5QUHs02OecIFZ7LMADfBdHq3XI1uU08u1cQFscr3a1/u46P8ADfBdH6+HMNXWMvlC3L1ioXTXtP7cMwAN8F0c711EvcbweaNkHXIT9PR64AXiAtwFeT7FFAHtfG9S+SwS2Q+cAeIBv7mSHHLDn/6Km8yUA9EjrAR7gLYDX5BQFrMjb1pNoADzAWwCvseuRQS9taz3GHuAB3gL4aINtCuDzbetBOAAP8BbAaw66OVwRP6udLa9rADzAN3Wwls675tyacDIi4PM2qZ1rvtfasgAP8E0dbK1DtiqPwr+faBTgAd4CeH7DA7yFo7dSzK2dl6v0AA/wRtkN9+EBHuCNgFdGwkg7npYDeiPoGUsP8ABvBDxPywE8wBsBHzmt7/HgjL4/t+XMHH5rV9cv3V5mvPmkegDSDf09vnfz7nx00KHPiiiXNhrne3/FlX5Y3w+aOy7knHadFpxE4VF4u4AcbRBO6wdmpsIA8ABvB7wAYF7642vdk9ITHNIEB1aeAfg0zjxN4Xi//3c+a8sdhh6FR+HTBUWNse+9oCSrxwJSOpC2lFlI6XsNu1U9I1aNLfbgoh3BhmDz+/N3q7i2vpCn8/deLbaAXrYAD/AAP/EB3SK79H16na/nrbcC99IW4CfGXuog9u2/6JW1b7TgpEbknZvm63idp9dCkTX2AHiAR+EP+IAeuNFTdrXwq5zK91g2qgbweRmAP2DseWfx2U/tpzbXJBq6qq/0XHPkacJJbfVZ+1svIjFty6nvAR7gUXgjHwB4I2OfqgoclyezAXiAR+GNfADgjYyNUudR6lNtCfAAj8Ib+QDAGxn7VFXguDyZAcADPApv5AMAb2RslDqPUp9qS4AHeBTeyAcA3sjYp6oCx+XJDAAe4FF4Ix8AeCNjo9R5lPpUWwI8wKPwRj4A8EbGPlUVOC5PZgDwAL+o8BkeBSVQ/T9QATzA/wd8tskeAB7g/3NunOG9M2j6pYtO59RpjTTs93+Ya/oEhTdW+OwTNtYA4FYG4A2B11TJDlMyu8Fc830B3gx4p0UXagBwKwPwRsC7LavkBnPN9wV4E+AdF06sAcCtDMAbAO+6NLIbzDXfF+ANgG99ge766vCyw+X/akeNU1LmtFtuNf0G8MmB1623AlyErdpT45iUaQM9wCcGXmukXXphxHODhtoTaa01t8AC8ImB1wi6cwFtcbza5QZalO8L8ImBr10AsQXUh86pdkUBwK0dAJ8UeD0Icwi60f+Lurpq9gAA8EmB15LFo6E+VL/alx2uiN8P4JMCHzWdL0GAtL7NVfhjQQbgEwKvySsKWJG3W1hP/RhAW/s/wCcEXmPmI4Ne2qZ2bg2YrbcX4BMCH22wTQF8vmUQTv+0HuATAv/6Ycz773Pg1c6tK+bW2g/wCYF/9eDOJlJ6tXNrwGy9vQCfEHgUvn+qvJVAAPAJgec3PMDvC0AAnxB4rtIDPMAnBHufUbkPD/D7fAOFTxoIGGkH9EvQA3xS4BlLD/AAnxTuJcPytBzAL/kFCp84CERN63lwZlwwAvjEwDPjzTiwltQ1wj6ATwy85o4LOacdC04OG2EI8ImBl6JEG4TDAzNjsw6ATw68oGde+rGQRUjlSxsA3gB4Vp4BeIA3AL0YWVvWlgN6+QEKbwQ+q8cCPcAbAV+Uvtf9edWjzGKaafB+bNABeDPgBZx+07e+kKfzqx4AHwv4vP8B3hD44gS6RXbp+/Q6H7feYkFe7K0twBsDLwfQgpMakXdumq/jdR4WiowLO8Cbwz6N/HqvB270lF0t/Cqn8iwbFRvyqZ1ReKBf/J2tSTR0VV/puebI04ST2uqz9rOIxHYgB3ggX4R86hi83ybQx+yGwgM/8Bv5AMAbGftY9Of/OVV9aleAB3gU3sgHAN7I2NNIz/v8ar5kY4AHeBTeyAcA3sjYSxGffV5KD/AAj8Ib+QDAGxkbNfdS8yV7AzzAo/BGPgDwRsZeivjs81J9gAd4FN7IBwDeyNiouZeaL9kb4AEehTfyAYA3MvZSxGefl+oDPMCj8EY+APBGxkbNvdR8yd4AD/AovJEPALyRsZciPvu8VB/gAR6FN/IBgK80NpM6eilh1swH4A8Az7TNQJ4NfICfAa+FFC66MMObp6TMsz7OBtGWvg/AT5yRpZdQ9C3Be0pbAZ7FFclAJkH/FIi2dIw98FrOuHZppeurW7tzXqqH5ZPJIkYGCGvgtWTSky9vnwXx2gCg+lTvSKNTt2/QsQVeStsb9hIcVC9K7wvdyIBrCfw/Lx91S+ML5POt0nu1Y6Txqdsv6FgC/+y7j7qm8XPYy2e1A+j8oBtpczvgdeutABdhq/aMdADq9go4VsC/ffN09/P9D0IBr/ZosA/geYE3yt5WwGsEXQRVn7dB7RrlANTrFWisgO91v30O9LHPahfgeYE3yt42wOtBmGPgjfy/2jfKCajXJ9jYAP/i+49DA6/2AZ4PeKNsbQN81HS+ZBWk9cDeIwhYAK/JKwpYkbdqZw+jU4dvcLEAXmPXI4Ne2sYYe18QewVhC+CjDbYpgM+3DMIB+NbgWwD/+mHM++9z4NXO1gbn/N5BxQL4Vw/ubCKlVzsB0hvI1va3AB6FB6LWIG3l/BbA8xse4LcCZOt2WgDPVXqAbw3SVs5vATz34QF+K0C2bqcF8OpERtoBfWuYtnB+G+AZSw/wWwCydRttgOdpOYBvDdMWzm8DvIwRNa3nwRmCUa9gYQU8M94AVi+wotZjBbzmjgs5px0LTjLCsNNyV1bAK+pGG4TDAzNkHT2zATvg1bnMSw9kPSGLVJcl8Kw8A/CRIOzZFkvg1cGsLQf0PUGLUpct8DKAxtj3XlCS1WMJNCPhtwZeHS+l73V/XvWwaizAA3ynWxL7Olq/6VtfyNP5WS0W2Pf5YK/99go/7WjdIrv0fXqdj1tvgD71s5HvAX6WXWjBSY3IOzfN1/E6DwtFAvtIwOd1A/wM+GkH6YEbPWVXC7/KqTzLRgH51I8ivQf4A8BPDaVJNHRVX+m55sjThJPa6rP2s4gEkE/9Jep7gK8EPqoBaReBZo0PADzA8+CKkQ8AvJGx1ygBZXNmDgAP8Ci8kQ8AvJGxUe2cqr3GrgAP8Ci8kQ8AvJGx1ygBZXNmAwAP8Ci8kQ8AvJGxUe2cqr3GrgAP8Ci8kQ8AvJGx1ygBZXNmAwAP8Ci8kQ8AvJGxUe2cqr3GrgAP8Ci8kQ8AvJGx1ygBZXNmAwAP8Ci8kQ8AvJGxUe2cqr3GrgAP8Ci8kQ8AvJGx1ygBZXNmAwAP8Ci8kQ8AvJGxUe2cqr3GrgAP8Ci8kQ8AvJGx1ygBZXNmAwAP8Ci8kQ8AvJGxUe2cqr3GrgAP8Ci8kQ8AvJGx1ygBZXNmAwAP8Ci8kQ8AvJGxUe2cqr3Grl2AVyW86AN8IIYPXF/d2tW8bujv8b2bd2sKU6auU+kn+imqDwB8ZWSMakDaRXBZ4wMAD/BVqeAap6Js3CAE8AAP8EY+APBGxkZ54ypvL9sAPMCj8EY+APBGxu6lItQTN5MAeIBH4Y18AOCNjI3yxlXeXrYBeIBH4Y184F+fcwcD0El1UgAAAABJRU5ErkJggg==;sketch=1;" vertex="1" parent="1">
          <mxGeometry x="673" y="-959.5" width="27" height="27" as="geometry" />
        </mxCell>
        <mxCell id="woqAreDRRJCcJmipMoo3-3" value="" style="shape=image;verticalLabelPosition=bottom;labelBackgroundColor=#ffffff;verticalAlign=top;aspect=fixed;imageAspect=0;image=data:image/png,iVBORw0KGgoAAAANSUhEUgAAAPwAAAD8CAYAAABTq8lnAAAN1UlEQVR4Ae2dwaocRRSG8ywJ2Qm+ik/ga8SFYPY+QOAqCEHXbly5j8FFVsEbULIJiYQEg6gbXWTkTyhp2p6Z6pmpqtPn/y4MPdO3uqumzvnOf6a7uurGDf7oAXrAqwce37t5l5dfHzz54uZn2N3L7u8im4x+fXVrx4s+wAdy+wDAE+gI9EY+APBGxka9c6t3jX0BHuBReCMfAHgjY9coAGVyZwEAD/AovJEPALyRsVHv3OpdY1+AB3gU3sgHAN7I2DUKQJncWQDAAzwKb+QDAG9kbNQ7t3rX2Pck4F89+GTHiz7AB+L4QA3sKnMy8Lvfn+940Qf4wHgfUOAFeAISAdnEBwDexNCo63h1jWADgAd41N3IBwDeyNgRFIY2jM00AB7gUXgjHwB4I2OjrmPVNUL/AzzAo/BGPgDwRsaOoDC0YWyWAfAAj8Ib+QDAGxkbdR2rrhH6H+ABHoU38gGANzJ2BIWhDWOzDIAHeBTeyAcA3sjYqOtYdY3Q/wAP8Ci8kQ8AvJGxIygMbRibZQA8wKPwRj4A8EbGRl3HqmuE/gd4gEfhjXwA4I2MHUFhaMPYLAPgAR6FN/IBgDcyNuo6Vl0j9D/AAzwKb+QDAG9k7AgKQxvGZhkAD/AovJEPALyRsVHXseoaof8BHuBReCMfAHgjY0dQGNowNssAeIBH4Y18AOCNjI26jlXXCP0P8ACPwhv5AMAbGTuCwtCGsVkGwAM8Cm/kAwBvZGzUday6Ruh/gAd4FL7SB/7+9cfdn0++2b159Pnu9cNPd68e3Hm31Wft1/8jQH2oDQBfaexDncj/8irnHz99tXvx/ce7X77+cHd9devoS+VUXsdF9AuAB/iQjjkSlre/Pd29/uHTasj3BQLBr/O8ffM0TB8DPMCHccaRkJe6lZ7/fP+Do0q+D/Kl/TqfzlvqGLkFeIAP4YgjIVDd/7x8tHv23UcXBX0Ov86vekZ+V4AH+KEOONL5S91//fLt2en7HO59n5Xmq75Sd+8twAP8MOfr7exL9enq+pMvbzdV9jn8qk/1LrWn9T6AB/ghjtfasWvOL6XtDXuBX/WOUHqAB3hL4PVbuvZWW4H00lvV3/s3PcADvCXwrS/Q1QYHtaMmG7lUGYAH+K4OdynHPec8ukVWC2SPcj1v2QE8wFsBr0Ewl77Pfm5QUHs02OecIFZ7LMADfBdHq3XI1uU08u1cQFscr3a1/u46P8ADfBdH6+HMNXWMvlC3L1ioXTXtP7cMwAN8F0c711EvcbweaNkHXIT9PR64AXiAtwFeT7FFAHtfG9S+SwS2Q+cAeIBv7mSHHLDn/6Km8yUA9EjrAR7gLYDX5BQFrMjb1pNoADzAWwCvseuRQS9taz3GHuAB3gL4aINtCuDzbetBOAAP8BbAaw66OVwRP6udLa9rADzAN3Wwls675tyacDIi4PM2qZ1rvtfasgAP8E0dbK1DtiqPwr+faBTgAd4CeH7DA7yFo7dSzK2dl6v0AA/wRtkN9+EBHuCNgFdGwkg7npYDeiPoGUsP8ABvBDxPywE8wBsBHzmt7/HgjL4/t+XMHH5rV9cv3V5mvPmkegDSDf09vnfz7nx00KHPiiiXNhrne3/FlX5Y3w+aOy7knHadFpxE4VF4u4AcbRBO6wdmpsIA8ABvB7wAYF7642vdk9ITHNIEB1aeAfg0zjxN4Xi//3c+a8sdhh6FR+HTBUWNse+9oCSrxwJSOpC2lFlI6XsNu1U9I1aNLfbgoh3BhmDz+/N3q7i2vpCn8/deLbaAXrYAD/AAP/EB3SK79H16na/nrbcC99IW4CfGXuog9u2/6JW1b7TgpEbknZvm63idp9dCkTX2AHiAR+EP+IAeuNFTdrXwq5zK91g2qgbweRmAP2DseWfx2U/tpzbXJBq6qq/0XHPkacJJbfVZ+1svIjFty6nvAR7gUXgjHwB4I2OfqgoclyezAXiAR+GNfADgjYyNUudR6lNtCfAAj8Ib+QDAGxn7VFXguDyZAcADPApv5AMAb2RslDqPUp9qS4AHeBTeyAcA3sjYp6oCx+XJDAAe4FF4Ix8AeCNjo9R5lPpUWwI8wKPwRj4A8EbGPlUVOC5PZgDwAL+o8BkeBSVQ/T9QATzA/wd8tskeAB7g/3NunOG9M2j6pYtO59RpjTTs93+Ya/oEhTdW+OwTNtYA4FYG4A2B11TJDlMyu8Fc830B3gx4p0UXagBwKwPwRsC7LavkBnPN9wV4E+AdF06sAcCtDMAbAO+6NLIbzDXfF+ANgG99ge766vCyw+X/akeNU1LmtFtuNf0G8MmB1623AlyErdpT45iUaQM9wCcGXmukXXphxHODhtoTaa01t8AC8ImB1wi6cwFtcbza5QZalO8L8ImBr10AsQXUh86pdkUBwK0dAJ8UeD0Icwi60f+Lurpq9gAA8EmB15LFo6E+VL/alx2uiN8P4JMCHzWdL0GAtL7NVfhjQQbgEwKvySsKWJG3W1hP/RhAW/s/wCcEXmPmI4Ne2qZ2bg2YrbcX4BMCH22wTQF8vmUQTv+0HuATAv/6Ycz773Pg1c6tK+bW2g/wCYF/9eDOJlJ6tXNrwGy9vQCfEHgUvn+qvJVAAPAJgec3PMDvC0AAnxB4rtIDPMAnBHufUbkPD/D7fAOFTxoIGGkH9EvQA3xS4BlLD/AAnxTuJcPytBzAL/kFCp84CERN63lwZlwwAvjEwDPjzTiwltQ1wj6ATwy85o4LOacdC04OG2EI8ImBl6JEG4TDAzNjsw6ATw68oGde+rGQRUjlSxsA3gB4Vp4BeIA3AL0YWVvWlgN6+QEKbwQ+q8cCPcAbAV+Uvtf9edWjzGKaafB+bNABeDPgBZx+07e+kKfzqx4AHwv4vP8B3hD44gS6RXbp+/Q6H7feYkFe7K0twBsDLwfQgpMakXdumq/jdR4WiowLO8Cbwz6N/HqvB270lF0t/Cqn8iwbFRvyqZ1ReKBf/J2tSTR0VV/puebI04ST2uqz9rOIxHYgB3ggX4R86hi83ybQx+yGwgM/8Bv5AMAbGftY9Of/OVV9aleAB3gU3sgHAN7I2NNIz/v8ar5kY4AHeBTeyAcA3sjYSxGffV5KD/AAj8Ib+QDAGxkbNfdS8yV7AzzAo/BGPgDwRsZeivjs81J9gAd4FN7IBwDeyNiouZeaL9kb4AEehTfyAYA3MvZSxGefl+oDPMCj8EY+APBGxkbNvdR8yd4AD/AovJEPALyRsZciPvu8VB/gAR6FN/IBgK80NpM6eilh1swH4A8Az7TNQJ4NfICfAa+FFC66MMObp6TMsz7OBtGWvg/AT5yRpZdQ9C3Be0pbAZ7FFclAJkH/FIi2dIw98FrOuHZppeurW7tzXqqH5ZPJIkYGCGvgtWTSky9vnwXx2gCg+lTvSKNTt2/QsQVeStsb9hIcVC9K7wvdyIBrCfw/Lx91S+ML5POt0nu1Y6Txqdsv6FgC/+y7j7qm8XPYy2e1A+j8oBtpczvgdeutABdhq/aMdADq9go4VsC/ffN09/P9D0IBr/ZosA/geYE3yt5WwGsEXQRVn7dB7RrlANTrFWisgO91v30O9LHPahfgeYE3yt42wOtBmGPgjfy/2jfKCajXJ9jYAP/i+49DA6/2AZ4PeKNsbQN81HS+ZBWk9cDeIwhYAK/JKwpYkbdqZw+jU4dvcLEAXmPXI4Ne2sYYe18QewVhC+CjDbYpgM+3DMIB+NbgWwD/+mHM++9z4NXO1gbn/N5BxQL4Vw/ubCKlVzsB0hvI1va3AB6FB6LWIG3l/BbA8xse4LcCZOt2WgDPVXqAbw3SVs5vATz34QF+K0C2bqcF8OpERtoBfWuYtnB+G+AZSw/wWwCydRttgOdpOYBvDdMWzm8DvIwRNa3nwRmCUa9gYQU8M94AVi+wotZjBbzmjgs5px0LTjLCsNNyV1bAK+pGG4TDAzNkHT2zATvg1bnMSw9kPSGLVJcl8Kw8A/CRIOzZFkvg1cGsLQf0PUGLUpct8DKAxtj3XlCS1WMJNCPhtwZeHS+l73V/XvWwaizAA3ynWxL7Olq/6VtfyNP5WS0W2Pf5YK/99go/7WjdIrv0fXqdj1tvgD71s5HvAX6WXWjBSY3IOzfN1/E6DwtFAvtIwOd1A/wM+GkH6YEbPWVXC7/KqTzLRgH51I8ivQf4A8BPDaVJNHRVX+m55sjThJPa6rP2s4gEkE/9Jep7gK8EPqoBaReBZo0PADzA8+CKkQ8AvJGx1ygBZXNmDgAP8Ci8kQ8AvJGxUe2cqr3GrgAP8Ci8kQ8AvJGx1ygBZXNmAwAP8Ci8kQ8AvJGxUe2cqr3GrgAP8Ci8kQ8AvJGx1ygBZXNmAwAP8Ci8kQ8AvJGxUe2cqr3GrgAP8Ci8kQ8AvJGx1ygBZXNmAwAP8Ci8kQ8AvJGxUe2cqr3GrgAP8Ci8kQ8AvJGx1ygBZXNmAwAP8Ci8kQ8AvJGxUe2cqr3GrgAP8Ci8kQ8AvJGx1ygBZXNmAwAP8Ci8kQ8AvJGxUe2cqr3GrgAP8Ci8kQ8AvJGx1ygBZXNmAwAP8Ci8kQ8AvJGxUe2cqr3Grl2AVyW86AN8IIYPXF/d2tW8bujv8b2bd2sKU6auU+kn+imqDwB8ZWSMakDaRXBZ4wMAD/BVqeAap6Js3CAE8AAP8EY+APBGxkZ54ypvL9sAPMCj8EY+APBGxu6lItQTN5MAeIBH4Y18AOCNjI3yxlXeXrYBeIBH4Y184F+fcwcD0El1UgAAAABJRU5ErkJggg==;sketch=1;" vertex="1" parent="1">
          <mxGeometry x="733" y="-632.5" width="27" height="27" as="geometry" />
        </mxCell>
      </root>
    </mxGraphModel>
  </diagram>
</mxfile>
